<?xml version="1.0" standalone="no"?>
<!DOCTYPE svg PUBLIC "-//W3C//DTD SVG 20010904//EN"
 "http://www.w3.org/TR/2001/REC-SVG-20010904/DTD/svg10.dtd">
<svg version="1.0" xmlns="http://www.w3.org/2000/svg"
 width="116.000000pt" height="61.000000pt" viewBox="0 0 116.000000 61.000000"
 preserveAspectRatio="xMidYMid meet">
<metadata>
Created by potrace 1.10, written by Peter Selinger 2001-2011
</metadata>
<g transform="translate(0.000000,61.000000) scale(0.100000,-0.100000)"
fill="#ffffff" stroke="none">
<path d="M618 584 c-47 -25 -30 -60 34 -70 20 -3 40 0 52 9 21 16 14 37 -12
36 -14 0 -13 -2 3 -8 19 -8 19 -8 -2 -19 -25 -14 -83 2 -83 23 0 20 50 33 88
23 45 -12 52 -36 18 -65 -35 -30 -119 -31 -201 -3 -32 11 -62 20 -67 20 -5 0
-26 -18 -45 -40 -20 -22 -40 -40 -44 -40 -4 0 -6 16 -4 36 4 40 -10 50 -50 40
-23 -6 -25 -10 -19 -45 5 -33 3 -41 -15 -50 -27 -15 -28 -51 -1 -58 61 -16
-21 -46 -128 -47 l-86 -1 -18 -50 c-25 -70 -23 -74 17 -35 19 18 37 31 41 28
3 -4 -9 -20 -26 -35 -26 -24 -33 -39 -37 -79 -9 -87 51 -134 172 -134 l65 0 0
140 c0 87 4 140 10 140 6 0 10 -53 10 -140 0 -91 4 -140 11 -140 7 0 9 45 7
134 l-3 134 38 4 37 4 0 -53 0 -53 81 0 80 0 -2 48 c-3 52 -2 52 41 52 l30 0
0 -135 0 -135 110 0 110 0 0 34 c0 18 6 39 13 45 11 9 14 3 13 -32 l-1 -42 54
-3 53 -3 -5 33 c-4 18 -10 56 -15 83 -4 28 -14 60 -20 73 -25 45 20 17 57 -37
21 -29 23 -37 13 -65 -7 -18 -12 -44 -12 -59 0 -26 2 -27 50 -27 62 0 71 16
37 62 -13 18 -27 47 -31 63 -4 17 -9 38 -12 48 -3 10 0 17 8 17 7 0 25 7 41
14 15 8 27 14 27 12 0 -20 -25 -66 -36 -66 -17 0 -17 -10 0 -32 12 -16 14 -16
34 5 26 28 42 69 42 111 0 43 -7 48 -41 31 -37 -20 -36 -20 -49 23 -7 20 -20
51 -30 68 -18 31 -18 32 6 45 35 18 30 46 -18 93 -24 23 -52 52 -62 66 -13 16
-21 20 -24 12 -3 -10 -7 -10 -20 0 -13 11 -15 10 -10 -9 4 -13 1 -34 -5 -48
-13 -27 -27 -33 -27 -11 0 8 -9 24 -20 37 -17 21 -19 22 -20 6 0 -10 5 -28 11
-40 12 -21 12 -21 -16 -3 l-28 18 6 -30 c4 -20 1 -34 -8 -42 -7 -6 -17 -36
-21 -66 -7 -60 -6 -60 -76 -68 -54 -6 -64 7 -17 23 17 6 28 15 24 21 -9 15
-78 12 -101 -5 -10 -8 -29 -15 -41 -15 -33 0 -53 -11 -53 -27 0 -8 -4 -11 -10
-8 -5 3 -10 16 -10 28 0 17 -13 28 -50 45 -28 12 -50 29 -50 37 0 8 4 15 8 15
5 0 15 11 22 25 19 35 38 38 103 15 31 -11 79 -20 107 -20 118 0 181 73 99
115 -35 19 -66 18 -101 -1z m343 -199 c6 -35 16 -55 34 -68 33 -24 32 -41 -4
-67 l-30 -20 -15 22 c-9 12 -16 32 -16 44 0 13 -12 36 -26 53 -14 17 -22 32
-17 33 4 0 14 2 22 2 28 2 37 33 18 65 -18 30 -22 63 -10 75 8 8 29 -59 44
-139z m14 97 c-8 -8 -25 10 -25 26 0 13 2 13 14 -4 8 -10 13 -21 11 -22z m-95
-35 c0 -7 -4 -7 -12 1 -19 19 -23 15 -25 -26 -2 -28 5 -46 28 -75 39 -49 51
-87 33 -111 -11 -16 -11 -24 1 -54 8 -19 15 -51 15 -71 l0 -36 -25 30 c-16 19
-23 38 -20 52 3 13 -1 25 -9 30 -13 7 -13 16 1 65 15 54 15 58 -3 85 l-19 28
-3 -25 c-2 -14 -23 -47 -47 -75 -37 -42 -44 -47 -45 -28 0 12 -5 25 -11 29 -6
3 7 14 30 25 44 19 43 18 25 89 -2 8 1 22 6 30 7 11 10 1 10 -35 1 -41 3 -47
11 -31 6 10 9 36 6 56 -6 47 17 88 39 69 8 -6 14 -16 14 -22z m-494 -84 c-4
-9 -13 -13 -22 -9 -9 3 -24 6 -34 6 -15 0 -18 7 -15 43 2 23 4 48 4 55 1 8 17
-8 37 -33 20 -27 33 -53 30 -62z m634 66 c0 -11 -27 -12 -34 0 -3 4 -3 11 0
14 8 8 34 -3 34 -14z m-110 1 c0 -5 -4 -10 -10 -10 -5 0 -10 5 -10 10 0 6 5
10 10 10 6 0 10 -4 10 -10z m-610 -18 c0 -13 -12 -22 -22 -16 -10 6 -1 24 13
24 5 0 9 -4 9 -8z m585 -11 c7 -12 -12 -24 -25 -16 -11 7 -4 25 10 25 5 0 11
-4 15 -9z m-444 -71 c13 -16 32 -30 43 -30 15 0 16 -3 6 -15 -7 -8 -23 -15
-36 -15 -15 0 -24 6 -24 15 0 8 -5 15 -11 15 -8 0 -8 5 1 15 10 12 9 16 -4 21
-9 3 -16 10 -16 15 0 18 18 8 41 -21z m184 -7 c10 -16 12 -22 4 -15 -7 6 -31
12 -54 12 -23 0 -47 -6 -54 -12 -11 -11 -13 -10 -9 2 3 8 18 16 34 18 16 2 33
8 39 13 14 14 21 11 40 -18z m-260 -3 c4 -6 -11 -10 -37 -10 -31 0 -39 3 -28
10 20 13 57 13 65 0z m359 -25 c-4 -8 -10 -15 -15 -15 -5 0 -9 7 -9 15 0 8 7
15 15 15 9 0 12 -6 9 -15z m-474 -26 c0 -34 3 -33 -45 -13 -21 8 -48 13 -60
10 -14 -4 -28 1 -38 12 -14 16 -11 17 64 18 l79 2 0 -29z m430 27 c0 -15 -29
-55 -34 -47 -8 13 11 51 24 51 6 0 10 -2 10 -4z m165 -55 c-7 -32 -25 -43 -25
-15 0 19 20 57 27 51 3 -3 2 -19 -2 -36z m-378 9 c41 0 45 -26 6 -32 -47 -6
-63 1 -63 30 0 20 3 23 12 14 7 -7 27 -12 45 -12z m262 -30 c17 -7 31 -17 31
-22 0 -5 -9 -4 -19 2 -11 5 -29 10 -41 10 -24 0 -35 22 -25 48 6 15 8 15 15
-4 5 -11 22 -27 39 -34z m321 36 c0 -3 -4 -8 -10 -11 -5 -3 -10 -1 -10 4 0 6
5 11 10 11 6 0 10 -2 10 -4z m-823 -40 c22 -19 28 -32 28 -66 0 -85 -95 -121
-157 -60 -26 27 -30 36 -25 68 12 76 96 107 154 58z m603 -76 c9 -17 8 -25 -4
-39 -9 -10 -16 -23 -16 -30 0 -7 -12 -3 -30 11 -35 26 -36 32 -11 64 11 14 17
33 14 44 -3 11 1 27 8 36 12 15 15 12 21 -24 4 -23 12 -51 18 -62z m173 75
c-3 -9 -8 -14 -10 -11 -3 3 -2 9 2 15 9 16 15 13 8 -4z m-340 -19 c3 -8 -1
-20 -9 -26 -12 -10 -14 -8 -14 14 0 28 14 35 23 12z m83 -27 c3 -6 2 -15 -4
-21 -7 -7 -14 -3 -21 11 -10 17 -9 21 3 21 8 0 18 -5 22 -11z m-40 -81 c1 -27
-3 -48 -7 -48 -5 0 -9 8 -9 17 0 9 -9 27 -21 39 -20 21 -20 23 -3 49 16 25 18
25 28 8 5 -10 11 -39 12 -65z m333 -15 c10 -20 9 -23 -9 -23 -19 0 -28 28 -13
43 7 8 7 9 22 -20z m-379 -14 c0 -5 -4 -9 -10 -9 -5 0 -10 7 -10 16 0 8 5 12
10 9 6 -3 10 -10 10 -16z m90 6 c10 -12 10 -15 -4 -15 -9 0 -16 7 -16 15 0 8
2 15 4 15 2 0 9 -7 16 -15z m170 -8 c11 -5 -30 -3 -48 2 -2 1 0 6 3 11 4 7 11
7 18 2 7 -5 19 -12 27 -15z"/>
<path d="M116 209 c-14 -11 -26 -25 -26 -31 0 -7 4 -7 13 1 10 8 19 7 33 -4
14 -11 15 -14 3 -9 -10 3 -20 0 -24 -7 -7 -11 4 -11 50 1 6 1 24 1 40 0 l30
-2 -30 -7 c-22 -5 -32 -14 -39 -39 -5 -17 -13 -32 -17 -32 -12 0 -11 14 2 27
15 15 3 33 -21 33 -10 0 -22 5 -25 10 -11 19 -23 10 -18 -12 16 -66 89 -90
133 -43 32 34 30 83 -5 113 -33 28 -65 28 -99 1z m40 -4 c-3 -8 -1 -15 4 -15
6 0 10 7 10 15 0 8 5 15 10 15 6 0 10 -5 10 -11 0 -5 4 -7 10 -4 6 3 7 -1 4
-10 -5 -11 -2 -14 10 -9 9 3 16 1 16 -5 0 -6 -11 -10 -24 -9 -16 2 -22 7 -19
18 4 12 2 12 -9 -2 -13 -15 -16 -15 -38 4 -17 13 -19 18 -7 14 9 -3 17 -1 17
4 0 6 3 10 6 10 3 0 4 -7 0 -15z m57 -85 c4 0 5 5 2 10 -3 6 -1 10 4 10 16 0
13 -15 -9 -41 -14 -17 -19 -20 -20 -9 0 13 -1 13 -10 0 -7 -10 -10 -11 -10 -2
0 7 7 15 15 18 13 5 13 9 3 23 -10 13 -10 14 2 4 8 -7 18 -13 23 -13z m-63 -1
c0 -4 -7 -12 -15 -19 -13 -11 -14 -10 -9 4 5 12 2 15 -10 10 -9 -3 -16 -1 -16
5 0 6 11 10 25 9 14 -1 25 -5 25 -9z"/>
<path d="M380 80 l0 -60 78 0 77 0 1 60 1 60 -79 0 -78 0 0 -60z m120 0 c0
-29 -2 -30 -45 -30 -43 0 -45 1 -45 30 0 29 2 30 45 30 43 0 45 -1 45 -30z"/>
</g>
</svg>
